<svg width="24" height="24" viewBox="0 0 24 24" fill="none" xmlns="http://www.w3.org/2000/svg">
<path fill-rule="evenodd" clip-rule="evenodd" d="M4 2.76923C4 2.3444 4.34662 2 4.77419 2H19.2258C19.6534 2 20 2.3444 20 2.76923V21.2308C20 21.6556 19.6534 22 19.2258 22H4.77419C4.34662 22 4 21.6556 4 21.2308V2.76923ZM5.54839 3.53846V20.4615H18.4516V3.53846H5.54839ZM7.35484 6.15385C7.35484 5.98391 7.49349 5.84615 7.66452 5.84615H8.59355C8.76458 5.84615 8.90323 5.98391 8.90323 6.15385V7.07692C8.90323 7.24686 8.76458 7.38462 8.59355 7.38462H7.66452C7.49349 7.38462 7.35484 7.24686 7.35484 7.07692V6.15385ZM7.66452 9.94872C7.49349 9.94872 7.35484 10.0865 7.35484 10.2564V11.1795C7.35484 11.3494 7.49349 11.4872 7.66452 11.4872H8.59355C8.76458 11.4872 8.90323 11.3494 8.90323 11.1795V10.2564C8.90323 10.0865 8.76458 9.94872 8.59355 9.94872H7.66452ZM7.35484 14.359C7.35484 14.189 7.49349 14.0513 7.66452 14.0513H8.59355C8.76458 14.0513 8.90323 14.189 8.90323 14.359V15.2821C8.90323 15.452 8.76458 15.5897 8.59355 15.5897H7.66452C7.49349 15.5897 7.35484 15.452 7.35484 15.2821V14.359Z" fill="#262626"/>
<path d="M9.9879 6.10236C9.9879 5.98907 10.0803 5.89724 10.1944 5.89724H16.4911C16.6051 5.89724 16.6976 5.98907 16.6976 6.10236V7.23057C16.6976 7.34386 16.6051 7.4357 16.4911 7.4357H10.1944C10.0803 7.4357 9.9879 7.34386 9.9879 7.23057V6.10236Z" fill="#262626"/>
<path d="M9.9879 10.1538C9.9879 10.0406 10.0803 9.94872 10.1944 9.94872H16.4911C16.6051 9.94872 16.6976 10.0406 16.6976 10.1538V11.2821C16.6976 11.3953 16.6051 11.4872 16.4911 11.4872H10.1944C10.0803 11.4872 9.9879 11.3953 9.9879 11.2821V10.1538Z" fill="#262626"/>
<path d="M9.9879 14.2564C9.9879 14.1431 10.0803 14.0513 10.1944 14.0513H16.4911C16.6051 14.0513 16.6976 14.1431 16.6976 14.2564V15.3846C16.6976 15.4979 16.6051 15.5897 16.4911 15.5897H10.1944C10.0803 15.5897 9.9879 15.4979 9.9879 15.3846V14.2564Z" fill="#262626"/>
</svg>
