<svg width="16" height="16" viewBox="0 0 16 16" fill="none" xmlns="http://www.w3.org/2000/svg">
<path d="M4.05715 7.66552L4.06003 7.65644C4.13698 7.40241 4.28814 7.13972 4.51347 6.90993L9.46962 1.85562C9.76136 1.5581 10.104 1.39019 10.4098 1.34565C10.715 1.30118 10.9601 1.37976 11.1169 1.53973C11.2745 1.70037 11.3526 1.95289 11.3086 2.26742C11.2645 2.58174 11.0989 2.93224 10.8072 3.22973L6.39139 7.73296C6.24985 7.8773 6.24985 8.10987 6.39139 8.25422L10.8197 12.7703C11.1115 13.0678 11.2771 13.4183 11.3212 13.7326C11.3652 14.0471 11.287 14.2996 11.1295 14.4603C10.9726 14.6202 10.7276 14.6988 10.4223 14.6544C10.1166 14.6098 9.77394 14.4419 9.4822 14.1444L4.52605 9.09008C4.36154 8.9223 4.23618 8.73658 4.15055 8.54907C4.14283 8.53216 4.13386 8.51586 4.12371 8.50032C4.01099 8.32765 3.9668 8.07926 4.02691 7.78697L4.0284 7.77883C4.03564 7.73918 4.04528 7.70137 4.05715 7.66552Z" fill="#262626"/>
</svg>
