<svg width="24" height="24" viewBox="0 0 24 24" fill="none" xmlns="http://www.w3.org/2000/svg">
<path d="M19.5045 7.01339L14.7009 2.20982C14.567 2.07589 14.3862 2 14.1964 2H4.71429C4.3192 2 4 2.3192 4 2.71429V21.2857C4 21.6808 4.3192 22 4.71429 22H19C19.3951 22 19.7143 21.6808 19.7143 21.2857V7.52009C19.7143 7.33036 19.6384 7.14732 19.5045 7.01339ZM18.067 7.84821H13.8661V3.64732L18.067 7.84821ZM18.1071 20.3929H5.60714V3.60714H12.3482V8.42857C12.3482 8.67721 12.447 8.91567 12.6228 9.09148C12.7986 9.2673 13.0371 9.36607 13.2857 9.36607H18.1071V20.3929ZM11.6786 14.3661H7.57143C7.47321 14.3661 7.39286 14.4464 7.39286 14.5446V15.6161C7.39286 15.7143 7.47321 15.7946 7.57143 15.7946H11.6786C11.7768 15.7946 11.8571 15.7143 11.8571 15.6161V14.5446C11.8571 14.4464 11.7768 14.3661 11.6786 14.3661ZM7.39286 11.5089V12.5804C7.39286 12.6786 7.47321 12.7589 7.57143 12.7589H16.1429C16.2411 12.7589 16.3214 12.6786 16.3214 12.5804V11.5089C16.3214 11.4107 16.2411 11.3304 16.1429 11.3304H7.57143C7.47321 11.3304 7.39286 11.4107 7.39286 11.5089Z" fill="#002FBB"/>
</svg>
