<svg width="32" height="32" viewBox="0 0 32 32" fill="none" xmlns="http://www.w3.org/2000/svg">
<path d="M28.381 13.2601H25.1667V9.79673C25.1667 9.25709 24.7411 8.82112 24.2143 8.82112H14.8393L11.3482 5.40039C11.3038 5.35779 11.2454 5.33385 11.1845 5.33331H3.61905C3.09227 5.33331 2.66667 5.76929 2.66667 6.30892V24.3577C2.66667 24.8973 3.09227 25.3333 3.61905 25.3333H24.3929C24.7798 25.3333 25.131 25.0925 25.2768 24.7236L29.2649 14.6016C29.3095 14.4858 29.3333 14.3608 29.3333 14.2358C29.3333 13.6961 28.9077 13.2601 28.381 13.2601ZM4.80953 7.52844H10.4196L13.9792 11.0162H23.0238V13.2601H7.84524C7.45834 13.2601 7.10715 13.501 6.96132 13.8699L4.80953 19.3333V7.52844ZM23.7173 23.1382H5.49405L8.56846 15.3333H26.7947L23.7173 23.1382Z" fill="currentColor"/>
</svg>
