<svg width="32" height="32" viewBox="0 0 32 32" fill="none" xmlns="http://www.w3.org/2000/svg">
<path d="M6.99995 16.0001C6.99995 15.4478 7.44767 15.0001 7.99995 15.0001C8.55224 15.0001 8.99995 15.4478 8.99995 16.0001V25.6667H23V16.0001C23 15.4478 23.4477 15.0001 24 15.0001C24.5522 15.0001 25 15.4478 25 16.0001V27.6667H6.99995V16.0001ZM15.4856 4.47533C15.8539 4.25425 16.3324 4.29141 16.664 4.586L28.664 15.2527C29.0767 15.6195 29.1141 16.2513 28.7473 16.6641C28.3805 17.0769 27.7487 17.1142 27.3359 16.7475L16 6.67064L4.66401 16.7475C4.25123 17.1142 3.61942 17.0769 3.25255 16.6641C2.88579 16.2513 2.92316 15.6195 3.33589 15.2527L15.3359 4.586L15.4856 4.47533Z" fill="currentColor"/>
</svg>
