<svg width="32" height="32" viewBox="0 0 32 32" fill="none" xmlns="http://www.w3.org/2000/svg">
<path d="M27.0061 23.3407C26.3706 21.9187 25.4484 20.6269 24.2909 19.5375C23.1369 18.445 21.7698 17.5739 20.2652 16.9724C20.2517 16.966 20.2383 16.9628 20.2248 16.9565C22.3235 15.5243 23.6879 13.1915 23.6879 10.5595C23.6879 6.19935 19.9485 2.66669 15.3333 2.66669C10.7181 2.66669 6.97877 6.19935 6.97877 10.5595C6.97877 13.1915 8.34312 15.5243 10.4419 16.9597C10.4284 16.966 10.4149 16.9692 10.4014 16.9756C8.89223 17.5771 7.53798 18.4396 6.37576 19.5407C5.21929 20.631 4.29724 21.9225 3.66053 23.3439C3.03502 24.7355 2.69767 26.2275 2.66674 27.739C2.66584 27.773 2.67215 27.8068 2.68529 27.8384C2.69843 27.8701 2.71814 27.8989 2.74325 27.9232C2.76837 27.9475 2.79838 27.9669 2.83153 27.98C2.86467 27.9932 2.90028 28 2.93624 28H4.95751C5.10573 28 5.22364 27.8886 5.22701 27.7518C5.29438 25.2948 6.3387 22.9938 8.18479 21.2498C10.0949 19.4452 12.6316 18.4523 15.3333 18.4523C18.0351 18.4523 20.5718 19.4452 22.4819 21.2498C24.3279 22.9938 25.3723 25.2948 25.4396 27.7518C25.443 27.8918 25.5609 28 25.7091 28H27.7304C27.7664 28 27.802 27.9932 27.8351 27.98C27.8683 27.9669 27.8983 27.9475 27.9234 27.9232C27.9485 27.8989 27.9682 27.8701 27.9814 27.8384C27.9945 27.8068 28.0008 27.773 27.9999 27.739C27.9662 26.2178 27.6327 24.7379 27.0061 23.3407ZM15.3333 16.0335C13.7871 16.0335 12.3317 15.4638 11.2369 14.4295C10.142 13.3952 9.53904 12.0203 9.53904 10.5595C9.53904 9.09868 10.142 7.72381 11.2369 6.68947C12.3317 5.65513 13.7871 5.08545 15.3333 5.08545C16.8796 5.08545 18.3349 5.65513 19.4297 6.68947C20.5246 7.72381 21.1276 9.09868 21.1276 10.5595C21.1276 12.0203 20.5246 13.3952 19.4297 14.4295C18.3349 15.4638 16.8796 16.0335 15.3333 16.0335Z" fill="currentColor"/>
</svg>
