<svg width="24" height="24" viewBox="0 0 24 24" fill="none" xmlns="http://www.w3.org/2000/svg">
<path d="M20.8125 18.2614H4.6875V3.19318C4.6875 3.08693 4.60312 3 4.5 3H3.1875C3.08437 3 3 3.08693 3 3.19318V19.8068C3 19.9131 3.08437 20 3.1875 20H20.8125C20.9156 20 21 19.9131 21 19.8068V18.4545C21 18.3483 20.9156 18.2614 20.8125 18.2614ZM7.16719 14.5354C7.23984 14.6102 7.35703 14.6102 7.43203 14.5354L10.6734 11.2126L13.6641 14.3132C13.7367 14.3881 13.8562 14.3881 13.9289 14.3132L20.3836 7.66534C20.4563 7.59048 20.4563 7.46733 20.3836 7.39247L19.4555 6.43622C19.4202 6.40027 19.3726 6.3801 19.323 6.3801C19.2735 6.3801 19.2259 6.40027 19.1906 6.43622L13.8 11.9878L10.8141 8.89205C10.7788 8.85609 10.7312 8.83593 10.6816 8.83593C10.632 8.83593 10.5845 8.85609 10.5492 8.89205L6.24141 13.3038C6.20651 13.3401 6.18694 13.3892 6.18694 13.4403C6.18694 13.4914 6.20651 13.5404 6.24141 13.5767L7.16719 14.5354Z" fill="#8C8C8C"/>
</svg>
