<svg width="32" height="32" viewBox="0 0 32 32" fill="none" xmlns="http://www.w3.org/2000/svg">
<path d="M28.9812 19.3896L26.922 17.7228C27.0194 17.1573 27.0697 16.5799 27.0697 16.0024C27.0697 15.425 27.0194 14.8476 26.922 14.2821L28.9812 12.6153C29.1365 12.4894 29.2477 12.3217 29.2999 12.1346C29.3522 11.9475 29.343 11.7497 29.2736 11.5676L29.2453 11.4902C28.6784 9.99019 27.8295 8.59964 26.7396 7.38576L26.683 7.32326C26.5508 7.17608 26.3746 7.07029 26.1776 7.01981C25.9806 6.96933 25.7721 6.97655 25.5795 7.0405L23.0235 7.90068C22.0803 7.16849 21.0271 6.59107 19.889 6.18628L19.3954 3.65634C19.3582 3.46598 19.2607 3.29084 19.1158 3.15421C18.9709 3.01758 18.7855 2.92592 18.5843 2.89141L18.4994 2.87652C16.8614 2.59674 15.1386 2.59674 13.5006 2.87652L13.4157 2.89141C13.2145 2.92592 13.0291 3.01758 12.8842 3.15421C12.7394 3.29084 12.6418 3.46598 12.6046 3.65634L12.1078 6.19818C10.9788 6.60306 9.92744 7.18017 8.99537 7.90663L6.42051 7.0405C6.22799 6.97604 6.01932 6.96857 5.82221 7.01907C5.6251 7.06958 5.44889 7.17567 5.317 7.32326L5.26041 7.38576C4.17181 8.6005 3.32305 9.99082 2.75471 11.4902L2.72641 11.5676C2.58494 11.9397 2.70126 12.3563 3.0188 12.6153L5.10321 14.2999C5.00575 14.8595 4.95859 15.431 4.95859 15.9995C4.95859 16.5709 5.00575 17.1424 5.10321 17.699L3.0188 19.3836C2.86347 19.5095 2.75231 19.6772 2.70008 19.8643C2.64785 20.0515 2.65704 20.2492 2.72641 20.4313L2.75471 20.5087C3.32376 22.0088 4.16632 23.3928 5.26041 24.6132L5.317 24.6757C5.44921 24.8228 5.62543 24.9286 5.82242 24.9791C6.01941 25.0296 6.22793 25.0224 6.42051 24.9584L8.99537 24.0923C9.93226 24.8215 10.9792 25.3989 12.1078 25.8007L12.6046 28.3426C12.6418 28.5329 12.7394 28.7081 12.8842 28.8447C13.0291 28.9813 13.2145 29.073 13.4157 29.1075L13.5006 29.1224C15.1536 29.4037 16.8464 29.4037 18.4994 29.1224L18.5843 29.1075C18.7855 29.073 18.9709 28.9813 19.1158 28.8447C19.2607 28.7081 19.3582 28.5329 19.3954 28.3426L19.889 25.8126C21.0267 25.4089 22.0858 24.8296 23.0235 24.0982L25.5795 24.9584C25.772 25.0229 25.9807 25.0304 26.1778 24.9798C26.3749 24.9293 26.5511 24.8232 26.683 24.6757L26.7396 24.6132C27.8337 23.3899 28.6763 22.0088 29.2453 20.5087L29.2736 20.4313C29.4151 20.0652 29.2988 19.6485 28.9812 19.3896ZM24.6898 14.6333C24.7684 15.0827 24.8092 15.5441 24.8092 16.0054C24.8092 16.4668 24.7684 16.9281 24.6898 17.3775L24.4823 18.5711L26.8308 20.473C26.4748 21.2495 26.0254 21.9846 25.4915 22.6636L22.5739 21.6844L21.5867 22.4523C20.8353 23.0357 19.9991 23.494 19.0936 23.8155L17.8958 24.2411L17.333 27.1282C16.4451 27.2235 15.5486 27.2235 14.6607 27.1282L14.0979 24.2351L12.9095 23.8036C12.0135 23.4821 11.1804 23.0238 10.4353 22.4434L9.4481 21.6725L6.51168 22.6606C5.97722 21.979 5.53078 21.2439 5.17238 20.47L7.54603 18.5502L7.34167 17.3597C7.26622 16.9162 7.22535 16.4578 7.22535 16.0054C7.22535 15.55 7.26308 15.0946 7.34167 14.6512L7.54603 13.4606L5.17238 11.5408C5.52764 10.764 5.97722 10.0318 6.51168 9.35019L9.4481 10.3384L10.4353 9.56746C11.1804 8.98707 12.0135 8.5287 12.9095 8.20725L14.1011 7.78163L14.6638 4.88857C15.5473 4.79332 16.4496 4.79332 17.3362 4.88857L17.8989 7.77567L19.0968 8.2013C19.9991 8.52275 20.8385 8.98111 21.5899 9.56449L22.5771 10.3324L25.4946 9.35316C26.0291 10.0348 26.4755 10.7699 26.8339 11.5438L24.4854 13.4457L24.6898 14.6333ZM16.0031 10.4693C12.9473 10.4693 10.4699 12.8147 10.4699 15.7078C10.4699 18.6008 12.9473 20.9462 16.0031 20.9462C19.059 20.9462 21.5364 18.6008 21.5364 15.7078C21.5364 12.8147 19.059 10.4693 16.0031 10.4693ZM18.4931 18.0651C18.1665 18.3751 17.7784 18.621 17.3511 18.7886C16.9238 18.9561 16.4657 19.042 16.0031 19.0413C15.0631 19.0413 14.1797 18.6931 13.5132 18.0651C13.1856 17.7559 12.9259 17.3885 12.749 16.9839C12.572 16.5793 12.4812 16.1456 12.482 15.7078C12.482 14.8178 12.8498 13.9815 13.5132 13.3505C14.1797 12.7195 15.0631 12.3742 16.0031 12.3742C16.9432 12.3742 17.8266 12.7195 18.4931 13.3505C18.8207 13.6596 19.0804 14.0271 19.2573 14.4316C19.4343 14.8362 19.5251 15.2699 19.5243 15.7078C19.5243 16.5977 19.1565 17.4341 18.4931 18.0651Z" fill="currentColor"/>
</svg>
