<svg width="20" height="20" viewBox="0 0 20 20" fill="none" xmlns="http://www.w3.org/2000/svg">
<g clip-path="url(#clip0_5361_7)">
<path d="M10.1308 9.06764C10.1152 9.04655 10.0953 9.02949 10.0726 9.01776C10.0498 9.00603 10.0249 8.99994 9.99956 8.99994C9.97426 8.99994 9.9493 9.00603 9.92656 9.01776C9.90382 9.02949 9.8839 9.04655 9.86832 9.06764L7.53511 12.1928C7.51588 12.2188 7.50394 12.2501 7.50067 12.2829C7.4974 12.3157 7.50293 12.3489 7.51662 12.3786C7.53031 12.4083 7.55161 12.4333 7.57809 12.4507C7.60457 12.4682 7.63516 12.4774 7.66635 12.4773H9.20585V17.8235C9.20585 17.9205 9.28085 17.9999 9.37251 17.9999H10.6224C10.7141 17.9999 10.7891 17.9205 10.7891 17.8235V12.4796H12.3328C12.4723 12.4796 12.5494 12.3097 12.464 12.195L10.1308 9.06764Z" fill="#262626"/>
<path d="M16.6828 6.75636C15.6605 4.05993 13.0556 2.14252 10.0042 2.14252C6.95288 2.14252 4.34797 4.0577 3.32565 6.75412C1.4127 7.25636 -0.000244141 8.99966 -0.000244141 11.0711C-0.000244141 13.5376 1.99752 15.5354 4.46181 15.5354H5.3569C5.45511 15.5354 5.53547 15.455 5.53547 15.3568V14.0175C5.53547 13.9193 5.45511 13.8389 5.3569 13.8389H4.46181C3.70958 13.8389 3.00199 13.5398 2.4752 12.9974C1.95065 12.4572 1.67163 11.7296 1.69618 10.9751C1.71627 10.3858 1.91717 9.83225 2.28101 9.36573C2.65377 8.89029 3.1761 8.5443 3.75645 8.39029L4.60243 8.1693L4.9127 7.35234C5.10467 6.84341 5.37252 6.36796 5.70958 5.93716C6.04233 5.51017 6.43648 5.13482 6.87922 4.82332C7.79663 4.17823 8.87699 3.83671 10.0042 3.83671C11.1315 3.83671 12.2118 4.17823 13.1292 4.82332C13.5734 5.13582 13.9663 5.51082 14.2989 5.93716C14.6359 6.36796 14.9038 6.84564 15.0957 7.35234L15.4038 8.16707L16.2475 8.39029C17.4573 8.71618 18.3033 9.81662 18.3033 11.0711C18.3033 11.8099 18.0154 12.5064 17.4931 13.0287C17.2369 13.2863 16.9322 13.4906 16.5965 13.6297C16.2609 13.7688 15.901 13.8399 15.5377 13.8389H14.6426C14.5444 13.8389 14.464 13.9193 14.464 14.0175V15.3568C14.464 15.455 14.5444 15.5354 14.6426 15.5354H15.5377C18.002 15.5354 19.9998 13.5376 19.9998 11.0711C19.9998 9.00189 18.5913 7.26082 16.6828 6.75636Z" fill="#262626"/>
</g>
<defs>
<clipPath id="clip0_5361_7">
<rect width="20" height="20" fill="white"/>
</clipPath>
</defs>
</svg>
